<svg width="20" height="16" viewBox="0 0 20 16" fill="none" xmlns="http://www.w3.org/2000/svg">
<g clip-path="url(#clip0_47_165)">
<path d="M0 2.49607H4.51698V3.8246H0V2.49607ZM0 0.0287476H4.51698V1.35728H0V0.0287476ZM8.10415 4.94437H0V6.2729H7.80045C8.65449 6.2729 10.6472 6.29184 11.3875 7.48754V6.74739C11.0269 5.57063 9.96415 4.94437 8.10415 4.94437ZM8.12302 7.41162H0V8.74014H7.80045C9.69834 8.74014 10.894 8.81607 11.3875 9.0818V8.49343C11.0078 7.56346 9.41358 7.41162 8.12302 7.41162ZM8.10415 13.6747H0V12.3462H7.80045C8.65449 12.3462 10.6472 12.3272 11.3875 11.1315V11.8717C11.0269 13.0484 9.96415 13.6747 8.10415 13.6747ZM8.12302 11.2075H0V9.87894H7.80045C9.69834 9.87894 10.894 9.80301 11.3875 9.53728V10.1257C11.0078 11.0556 9.41358 11.2075 8.12302 11.2075ZM13.3613 15.9712H19.3208V15.1551H13.5321C13.0196 15.1551 11.8051 15.1361 11.3685 14.4339V14.8894C11.5773 15.5916 12.2226 15.9712 13.3613 15.9712ZM13.3423 14.4718H19.3018V13.6558H13.5321C12.3743 13.6558 11.6531 13.6178 11.3685 13.447V13.8076C11.5962 14.377 12.5642 14.4718 13.3423 14.4718Z" fill="#010101"/>
</g>
<defs>
<clipPath id="clip0_47_165">
<rect width="19.3208" height="16" fill="white"/>
</clipPath>
</defs>
</svg>
