<svg width="17" height="16" viewBox="0 0 17 16" fill="none" xmlns="http://www.w3.org/2000/svg">
<path d="M1.76561 7.05999L5.61894 3.19998L6.74561 4.33332C6.58561 4.89998 6.84561 5.51998 7.36561 5.81998V9.51332C6.96561 9.73999 6.69894 10.1733 6.69894 10.6667C6.69894 11.0203 6.83942 11.3594 7.08946 11.6095C7.33951 11.8595 7.67865 12 8.03227 12C8.38589 12 8.72503 11.8595 8.97508 11.6095C9.22513 11.3594 9.36561 11.0203 9.36561 10.6667C9.36561 10.1733 9.09894 9.73999 8.69894 9.51332V6.27332L10.0789 7.66665C10.0323 7.76665 10.0323 7.87998 10.0323 7.99998C10.0323 8.35361 10.1727 8.69275 10.4228 8.94279C10.6728 9.19284 11.012 9.33332 11.3656 9.33332C11.7192 9.33332 12.0584 9.19284 12.3084 8.94279C12.5585 8.69275 12.6989 8.35361 12.6989 7.99998C12.6989 7.64636 12.5585 7.30722 12.3084 7.05718C12.0584 6.80713 11.7192 6.66665 11.3656 6.66665C11.2456 6.66665 11.1323 6.66665 11.0323 6.71332L9.31894 4.99998C9.40172 4.69121 9.36963 4.36288 9.22863 4.07598C9.08763 3.78908 8.8473 3.56309 8.55227 3.43998C8.26561 3.33332 7.96561 3.30665 7.69894 3.37998L6.56561 2.25332L7.09227 1.73332C7.61227 1.20665 8.45227 1.20665 8.97227 1.73332L14.2989 7.05999C14.8256 7.57999 14.8256 8.41998 14.2989 8.93998L8.97227 14.2667C8.45227 14.7933 7.61227 14.7933 7.09227 14.2667L1.76561 8.93998C1.23894 8.41998 1.23894 7.57999 1.76561 7.05999Z" fill="black"/>
</svg>
