<svg width="17" height="16" viewBox="0 0 17 16" fill="none" xmlns="http://www.w3.org/2000/svg">
<g clip-path="url(#clip0_47_156)">
<path d="M1.04899 3.75752C-0.368345 5.87126 -0.192345 8.62036 0.890989 10.8649C0.915655 10.9196 0.942989 10.9715 0.969655 11.0234C0.984989 11.0594 1.00232 11.0926 1.02099 11.1272C1.02966 11.1459 1.04166 11.166 1.05232 11.184C1.06966 11.22 1.08832 11.2546 1.10632 11.2892L1.21099 11.4733C1.23099 11.5072 1.24899 11.5404 1.27099 11.5743C1.30832 11.6394 1.35099 11.7038 1.38966 11.7688C1.40699 11.7965 1.42299 11.8228 1.44232 11.8498C1.50697 11.9555 1.57592 12.0582 1.64899 12.1578C1.70099 12.2318 1.75299 12.3038 1.80899 12.3758C1.82699 12.4021 1.84766 12.4284 1.86632 12.4554L2.01299 12.6416C2.03166 12.6623 2.04966 12.688 2.06899 12.7101C2.13432 12.7918 2.20366 12.8714 2.27299 12.9523L2.27632 12.9565C2.36097 13.0674 2.45587 13.1694 2.55966 13.261C2.61299 13.3185 2.66632 13.3752 2.72299 13.4306L2.79032 13.4977C2.86432 13.5704 2.93899 13.6424 3.01699 13.7116C3.01832 13.7116 3.01899 13.713 3.02032 13.7137L3.05832 13.7483C3.12632 13.8099 3.19499 13.8715 3.26499 13.9282L3.34832 14.0009C3.40499 14.048 3.46432 14.093 3.52166 14.1393L3.61299 14.212C3.67499 14.2605 3.74099 14.3082 3.80432 14.3553C3.82766 14.3726 3.85099 14.3899 3.87499 14.4058L3.89499 14.4217L4.08166 14.5498L4.16166 14.6051C4.26032 14.6702 4.35766 14.7325 4.45499 14.7934C4.48232 14.8072 4.51099 14.8238 4.53699 14.8404C4.60899 14.8834 4.68366 14.927 4.75632 14.9671C4.79632 14.9906 4.83766 15.0107 4.87899 15.0322C4.92899 15.0612 4.98099 15.0896 5.03499 15.1187C5.04788 15.1228 5.06038 15.1281 5.07232 15.1346C5.09432 15.145 5.11499 15.1561 5.13632 15.1671C5.21632 15.2087 5.29966 15.2488 5.38632 15.2882C5.40232 15.2952 5.41966 15.3021 5.43699 15.3118C5.53299 15.3554 5.62966 15.3969 5.72899 15.4377C5.75166 15.4447 5.77566 15.4564 5.79899 15.4654C5.88899 15.5007 5.98166 15.5367 6.07299 15.5706L6.10632 15.5831C6.20899 15.6191 6.30966 15.6537 6.41299 15.6869C6.43699 15.6938 6.46166 15.7028 6.48699 15.7098C6.59366 15.743 6.69632 15.7824 6.80299 15.8046C13.6517 17.1002 15.6417 11.5293 15.6417 11.5293C13.9697 13.7898 11.003 14.3857 8.19232 13.7227C8.08832 13.6978 7.98432 13.6632 7.87899 13.6313C7.75211 13.5922 7.62608 13.5502 7.50099 13.5053L7.45966 13.4887C7.36899 13.4569 7.28166 13.4216 7.19299 13.3863C7.16887 13.3762 7.14441 13.3669 7.11966 13.3586C7.02099 13.3171 6.92632 13.2749 6.83099 13.2313C6.81032 13.2243 6.79299 13.2147 6.77232 13.2064C6.69156 13.1678 6.61111 13.1286 6.53099 13.0887C6.50698 13.0777 6.48341 13.0657 6.46032 13.0527C6.39766 13.0222 6.33499 12.9869 6.27366 12.9537C6.23154 12.9327 6.18997 12.9106 6.14899 12.8873C6.07299 12.8458 5.99766 12.8008 5.92232 12.7579C5.89966 12.7412 5.87366 12.7274 5.84766 12.7122C5.74914 12.6515 5.65157 12.5892 5.55499 12.5253C5.52819 12.5082 5.50196 12.4902 5.47632 12.4713C5.40557 12.4258 5.33621 12.378 5.26832 12.3281C5.24499 12.3121 5.22366 12.2948 5.19966 12.2775C5.13321 12.2299 5.06764 12.181 5.00299 12.1308C4.97499 12.1073 4.94499 12.0851 4.91499 12.0616C4.85632 12.0131 4.79699 11.9681 4.73832 11.9176L4.65966 11.8519C4.58394 11.7889 4.50948 11.7243 4.43632 11.6581C4.42876 11.6501 4.42051 11.643 4.41166 11.6366L4.18032 11.4179L4.11366 11.3529C4.05899 11.2947 4.00299 11.2393 3.94699 11.1826L3.88166 11.1134C3.81123 11.0406 3.74254 10.9661 3.67566 10.8898L3.66566 10.8787C3.59499 10.7985 3.52566 10.7161 3.45699 10.633C3.43899 10.6123 3.42166 10.5888 3.40366 10.5659L3.25232 10.3742C3.17545 10.2716 3.09989 10.1681 3.02566 10.0634C1.46699 7.85488 0.902989 4.80539 2.15032 2.30476M5.44566 1.97739C4.41899 3.50767 4.47632 5.55496 5.27632 7.17383C5.40852 7.44622 5.55959 7.7083 5.72832 7.958C5.88166 8.1864 6.05099 8.45702 6.25699 8.64182C6.32832 8.72626 6.40566 8.80793 6.48632 8.89098L6.54632 8.95327C6.62232 9.0294 6.70099 9.10346 6.77966 9.17821L6.79032 9.18721C6.88024 9.26869 6.97227 9.34762 7.06632 9.42391C7.08899 9.43983 7.10832 9.45852 7.13032 9.47444C7.22366 9.54919 7.31832 9.62117 7.41566 9.69315L7.42566 9.69938C7.46699 9.73052 7.51099 9.7589 7.55766 9.78935C7.57632 9.80181 7.59766 9.81842 7.61766 9.83088C7.68832 9.87794 7.75766 9.92224 7.82966 9.96723C7.84099 9.97207 7.85099 9.9783 7.86166 9.98315C7.92166 10.0212 7.98699 10.0579 8.04966 10.0918C8.07166 10.1057 8.09299 10.116 8.11632 10.1292C8.16032 10.152 8.20432 10.1762 8.24766 10.1998L8.26899 10.2095C8.35899 10.2558 8.45099 10.2988 8.54099 10.341C8.56365 10.3507 8.58299 10.3583 8.60232 10.368C8.67632 10.4012 8.75166 10.433 8.82632 10.4628C8.85966 10.4746 8.89099 10.4884 8.92232 10.4988C8.99032 10.5251 9.06232 10.5493 9.12899 10.5735L9.22232 10.6047C9.32032 10.6358 9.41899 10.6767 9.52166 10.6946C14.8083 11.6034 16.0323 7.37593 16.0323 7.37593C14.9303 9.02317 12.7977 9.80735 10.525 9.19482C10.4244 9.16785 10.3246 9.13784 10.2257 9.10485C10.1937 9.09515 10.1657 9.08477 10.135 9.07508C10.0657 9.05017 9.99432 9.02664 9.92699 8.99964L9.83099 8.96227C9.75566 8.93112 9.67966 8.90205 9.60699 8.86883C9.58432 8.85845 9.56366 8.85153 9.54632 8.84115C9.45299 8.79754 9.35899 8.75463 9.26766 8.70826L9.13032 8.6342L9.05099 8.59268C8.99122 8.55972 8.93231 8.5251 8.87432 8.48886C8.86011 8.48161 8.84631 8.47352 8.83299 8.46463C8.76232 8.41895 8.68832 8.37466 8.62099 8.32759C8.59832 8.31444 8.57766 8.29852 8.55632 8.28468L8.41766 8.19055C8.32166 8.12134 8.22766 8.04659 8.13232 7.97392C8.11099 7.95385 8.09032 7.93724 8.06966 7.91924C7.07032 7.10393 6.28232 5.98823 5.90832 4.72649C5.51499 3.41354 5.60166 1.94209 6.28166 0.746798M9.14299 0.645056C8.53699 1.56835 8.47899 2.7145 8.89632 3.73191C9.33965 4.8137 10.2457 5.66293 11.3017 6.06436C11.345 6.08166 11.387 6.0962 11.4323 6.11281L11.491 6.1315C11.5523 6.15226 11.6143 6.1751 11.6777 6.18963C14.5983 6.77448 15.389 4.63236 15.6017 4.31814C14.9063 5.35494 13.7403 5.60341 12.3097 5.24212C12.1931 5.21187 12.0783 5.1749 11.9657 5.13138C11.8254 5.08033 11.6879 5.02165 11.5537 4.95558C11.2995 4.82796 11.0579 4.67497 10.8323 4.49878C9.55099 3.49036 8.75699 1.56696 9.59299 0" fill="black"/>
</g>
<defs>
<clipPath id="clip0_47_156">
<rect width="16" height="16" fill="white" transform="translate(0.0322266)"/>
</clipPath>
</defs>
</svg>
