<svg width="17" height="16" viewBox="0 0 17 16" fill="none" xmlns="http://www.w3.org/2000/svg">
<g clip-path="url(#clip0_47_87)">
<path d="M14.3179 0H1.74651C0.800084 0 0.0322266 0.767857 0.0322266 1.71429V14.2857C0.0322266 15.2321 0.800084 16 1.74651 16H14.3179C15.2644 16 16.0322 15.2321 16.0322 14.2857V1.71429C16.0322 0.767857 15.2644 0 14.3179 0ZM8.73937 12.4786C8.73937 14.0357 7.82508 14.7464 6.49294 14.7464C5.28937 14.7464 4.59294 14.125 4.2358 13.3714L5.4608 12.6321C5.69651 13.05 5.9108 13.4036 6.42866 13.4036C6.92151 13.4036 7.2358 13.2107 7.2358 12.4571V7.34643H8.73937V12.4786ZM12.2965 14.7464C10.9001 14.7464 9.99651 14.0821 9.55723 13.2107L10.7822 12.5036C11.1037 13.0286 11.5251 13.4179 12.2644 13.4179C12.8858 13.4179 13.2858 13.1071 13.2858 12.675C13.2858 12.1607 12.8787 11.9786 12.1894 11.675L11.8144 11.5143C10.7287 11.0536 10.0108 10.4714 10.0108 9.24643C10.0108 8.11786 10.8715 7.26071 12.2108 7.26071C13.1679 7.26071 13.8537 7.59286 14.3465 8.46429L13.1751 9.21429C12.9179 8.75357 12.6394 8.57143 12.2072 8.57143C11.7679 8.57143 11.4894 8.85 11.4894 9.21429C11.4894 9.66429 11.7679 9.84643 12.4144 10.1286L12.7894 10.2893C14.0679 10.8357 14.7858 11.3964 14.7858 12.6536C14.7858 14.0036 13.7215 14.7464 12.2965 14.7464Z" fill="black"/>
</g>
<defs>
<clipPath id="clip0_47_87">
<rect x="0.0322266" width="16" height="16" rx="2" fill="white"/>
</clipPath>
</defs>
</svg>
