<svg width="38" height="16" viewBox="0 0 38 16" fill="none" xmlns="http://www.w3.org/2000/svg">
<g clip-path="url(#clip0_47_191)">
<path d="M36.1061 5.83571C36.1061 4.63819 36.2931 3.93136 36.2931 2.64622C36.2931 0.648412 35.557 0.00584146 33.9272 0.00584146H32.7297V1.4195H33.0977C33.9272 1.4195 34.1083 1.69405 34.1083 2.71048C34.1083 3.66265 34.0149 4.61482 34.0149 5.71888C34.0149 7.13253 34.4763 7.68164 35.3935 7.89777V7.99124C34.4705 8.20737 34.0149 8.75648 34.0149 10.1701C34.0149 11.2742 34.1083 12.1679 34.1083 13.1785C34.1083 14.2242 33.8922 14.4987 33.0977 14.4987V14.5279H32.7297V16H33.9272C35.5512 16 36.2931 15.3574 36.2931 13.3596C36.2931 12.0394 36.1061 11.3618 36.1061 10.1701C36.1061 9.52757 36.5034 8.84995 37.7009 8.79153V7.19679C36.5034 7.1559 36.1061 6.47828 36.1061 5.83571ZM29.9375 7.705C29.0145 7.33698 28.1558 7.12085 28.1558 6.50748C28.1558 6.046 28.5238 5.77145 29.2014 5.77145C29.879 5.77145 30.4924 6.046 31.1642 6.53669L32.3909 4.91274C31.6257 4.32859 30.58 3.71522 29.1664 3.71522C27.0809 3.71522 25.6673 4.91274 25.6673 6.60095C25.6673 8.10223 26.9875 8.87331 28.0915 9.29974C29.0437 9.66776 29.9667 9.97736 29.9667 10.5907C29.9667 11.0522 29.5986 11.356 28.7691 11.356C28.0039 11.356 27.2328 11.0464 26.4033 10.4038L25.1766 12.1855C26.0996 12.9507 27.5074 13.4764 28.6757 13.4764C31.1291 13.4764 32.4493 12.1855 32.4493 10.4973C32.4493 8.80905 31.135 8.10223 29.9375 7.705ZM8.97213 11.1749C8.756 11.1749 8.48144 10.988 8.48144 10.4096V0H4.12365C2.46465 0 1.72861 0.64257 1.72861 2.64038C1.72861 3.96057 1.91554 4.6966 1.91554 5.82986C1.91554 6.47243 1.51832 7.15005 0.320801 7.20847V8.80321C1.51832 8.83242 1.91554 9.51004 1.91554 10.1526C1.91554 11.2859 1.72861 11.9635 1.72861 13.2837C1.72861 15.2815 2.46465 15.9241 4.09444 15.9241H5.29196V14.5104H4.92394C4.1587 14.5104 3.91335 14.2008 3.91335 13.1902C3.91335 12.1796 4.00682 11.3151 4.00682 10.1818C4.00682 8.76816 3.54534 8.21906 2.62821 8.00292V7.90946C3.55118 7.69332 4.00682 7.14421 4.00682 5.73056C4.00682 4.62651 3.91335 3.73275 3.91335 2.72216C3.91335 1.71157 4.12949 1.43118 4.92394 1.43118H5.7476V10.2402C5.7476 12.1154 6.39017 13.3421 8.26531 13.3421C8.84946 13.3421 9.31094 13.2486 9.64391 13.126L9.33431 11.1281C9.15322 11.1749 9.0656 11.1749 8.97213 11.1749ZM22.507 7.705C21.5548 7.33698 20.6961 7.12085 20.6961 6.50748C20.6961 6.046 21.0641 5.77145 21.7418 5.77145C22.4194 5.77145 23.0327 6.046 23.7045 6.53669L24.9312 4.91274C24.166 4.32859 23.1204 3.71522 21.7067 3.71522C19.6213 3.71522 18.2076 4.91274 18.2076 6.60095C18.2076 8.10223 19.5278 8.87331 20.6319 9.29974C21.584 9.66776 22.507 9.97736 22.507 10.5907C22.507 11.0522 22.139 11.356 21.3095 11.356C20.5442 11.356 19.7732 11.0464 18.9437 10.4038L17.7461 12.1855C18.6691 12.9507 20.0769 13.4764 21.2452 13.4764C23.6987 13.4764 25.0189 12.1855 25.0189 10.4973C25.0247 8.80905 23.7045 8.10223 22.507 7.705ZM13.4526 3.68602C11.2094 3.68602 9.0656 5.56115 9.12401 8.50529C9.12401 11.5429 11.1218 13.3246 13.7564 13.3246C14.8604 13.3246 16.0871 12.9273 17.0393 12.2789L16.1163 10.655C15.4387 11.0522 14.7962 11.2391 14.1185 11.2391C12.8918 11.2391 11.9396 10.655 11.6943 9.24133H17.2554C17.2847 9.02519 17.3489 8.59876 17.3489 8.10807C17.384 5.61957 16.0287 3.68602 13.4526 3.68602ZM11.7001 7.55312C11.8871 6.3264 12.6231 5.74224 13.4818 5.74224C14.5859 5.74224 15.0181 6.50748 15.0181 7.55312H11.7001Z" fill="black"/>
</g>
<defs>
<clipPath id="clip0_47_191">
<rect width="37.3801" height="16" fill="white" transform="translate(0.320801)"/>
</clipPath>
</defs>
</svg>
