<svg width="17" height="16" viewBox="0 0 17 16" fill="none" xmlns="http://www.w3.org/2000/svg">
<g clip-path="url(#clip0_82_63)">
<path d="M12.9138 0H4.41382C2.34275 0 0.663818 1.67893 0.663818 3.75V12.25C0.663818 14.3211 2.34275 16 4.41382 16H12.9138C14.9849 16 16.6638 14.3211 16.6638 12.25V3.75C16.6638 1.67893 14.9849 0 12.9138 0Z" fill="black"/>
<mask id="mask0_82_63" style="mask-type:luminance" maskUnits="userSpaceOnUse" x="3" y="2" width="12" height="12">
<path d="M3.03882 2.375H14.2888V13.625H3.03882V2.375Z" fill="white"/>
</mask>
<g mask="url(#mask0_82_63)">
<path fill-rule="evenodd" clip-rule="evenodd" d="M13.4015 11.1381C12.7896 11.1211 12.3149 11.1838 11.9171 11.3512C11.8025 11.3972 11.6187 11.3972 11.6036 11.5414C11.6648 11.6019 11.6722 11.7009 11.7259 11.7848C11.8176 11.9369 11.9785 12.1419 12.1237 12.2483L12.6133 12.5982C12.9117 12.7805 13.2483 12.8871 13.539 13.0696C13.7074 13.1761 13.8757 13.3129 14.044 13.4271C14.1298 13.4879 14.1817 13.587 14.2889 13.6248V13.6018C14.2354 13.5336 14.22 13.4348 14.1667 13.3584L13.9368 13.1381C13.7152 12.8416 13.4395 12.5828 13.1412 12.3701C12.8963 12.2028 12.3609 11.9748 12.2614 11.6936L12.2463 11.6765C12.4144 11.6595 12.6133 11.6003 12.7742 11.5547C13.0345 11.4865 13.2715 11.5015 13.539 11.4331L13.9065 11.3266V11.2584C13.7688 11.1216 13.6693 10.9391 13.5241 10.8099C13.134 10.4754 12.7052 10.1483 12.2614 9.87463C12.0243 9.72263 11.7182 9.62357 11.4657 9.49457C11.3737 9.44888 11.2208 9.42607 11.1673 9.35007C11.0293 9.18307 10.953 8.96232 10.8535 8.76451L10.2262 7.44151C10.0885 7.14495 10.0042 6.84838 9.83609 6.5747C9.0479 5.28201 8.19084 4.49895 6.87484 3.73082C6.5919 3.57113 6.25528 3.50245 5.89734 3.41895L5.32359 3.38832C5.20097 3.33513 5.07865 3.19057 4.97153 3.12207C4.5354 2.84832 3.41065 2.25532 3.08903 3.03688C2.88247 3.53107 3.39522 4.01763 3.56928 4.2687C3.69959 4.44357 3.86765 4.6412 3.95972 4.83895C4.01115 4.96813 4.02834 5.10513 4.08203 5.24201C4.20428 5.57651 4.31915 5.94926 4.47984 6.26113C4.56559 6.42082 4.65565 6.58832 4.76278 6.7327C4.82403 6.81788 4.93122 6.85438 4.95403 6.9912C4.84684 7.14338 4.83947 7.37126 4.77822 7.56163C4.50265 8.42088 4.60984 9.48538 4.99997 10.118C5.12259 10.308 5.41153 10.7264 5.80359 10.5666C6.1479 10.4297 6.07109 9.99632 6.17053 9.61607C6.19365 9.52495 6.17828 9.46407 6.22403 9.40307V9.42013L6.53784 10.0512C6.77503 10.4238 7.18834 10.8116 7.53247 11.0703C7.71597 11.2072 7.8614 11.4431 8.09084 11.5266V11.5036H8.07578C8.02978 11.4354 7.96084 11.4047 7.89965 11.3515C7.76197 11.2147 7.60897 11.0473 7.50178 10.8953C7.18059 10.4696 6.89765 9.99801 6.64503 9.51145C6.52247 9.27576 6.41528 9.0172 6.31615 8.78151C6.26984 8.6902 6.26984 8.55313 6.19353 8.50782C6.07859 8.67482 5.91059 8.8197 5.82603 9.02488C5.68059 9.35176 5.66553 9.75482 5.61203 10.1731C5.58115 10.1807 5.59484 10.1731 5.58115 10.1901C5.33659 10.1294 5.25222 9.8782 5.16053 9.66551C4.93103 9.12563 4.89259 8.25882 5.09153 7.63526C5.14503 7.47557 5.37484 6.9737 5.28309 6.82163C5.23684 6.67713 5.08415 6.59363 4.99978 6.47945C4.90034 6.33495 4.79353 6.15257 4.72459 5.99288C4.54109 5.56682 4.44934 5.09557 4.25022 4.66976C4.15815 4.47201 3.99765 4.26663 3.86747 4.08432C3.72203 3.87895 3.56172 3.73438 3.44684 3.4912C3.40859 3.40601 3.35509 3.2707 3.41628 3.17932C3.4314 3.11851 3.46222 3.09413 3.52315 3.08051C3.62253 2.99526 3.9059 3.10332 4.00534 3.14863C4.28828 3.26282 4.52547 3.3692 4.76265 3.5287C4.86984 3.6047 4.98472 3.74926 5.1224 3.78745H5.28328C5.52815 3.84057 5.8034 3.80445 6.03265 3.87263C6.43828 4.00213 6.8054 4.19201 7.13465 4.39751C8.13684 5.02863 8.9634 5.92588 9.52172 6.9982C9.61347 7.17307 9.65172 7.33276 9.73609 7.51526C9.89697 7.88801 10.0959 8.26807 10.2562 8.63326C10.4171 8.99063 10.57 9.35588 10.7995 9.65238C10.9144 9.81207 11.3733 9.89557 11.5798 9.97926C11.7329 10.0474 11.9699 10.1088 12.108 10.1923C12.3679 10.352 12.6281 10.5345 12.8728 10.7094C12.995 10.8004 13.3778 10.9906 13.4006 11.1423L13.4015 11.1381ZM5.59878 4.53045C5.4931 4.52952 5.38774 4.54229 5.28534 4.56845V4.58551H5.3004C5.36165 4.7072 5.46884 4.79088 5.54528 4.89738L5.7214 5.26238L5.73653 5.24538C5.84365 5.16938 5.89734 5.0477 5.89734 4.86538C5.8514 4.8122 5.84384 4.75882 5.80559 4.70563C5.75965 4.62963 5.66022 4.59145 5.59878 4.53082V4.53045Z" fill="white"/>
</g>
</g>
<defs>
<clipPath id="clip0_82_63">
<rect width="16" height="16" fill="white" transform="translate(0.663818)"/>
</clipPath>
</defs>
</svg>
