<svg width="28" height="16" viewBox="0 0 28 16" fill="none" xmlns="http://www.w3.org/2000/svg">
<g clip-path="url(#clip0_82_38)">
<path d="M13.848 15C6.21479 15 0.0322266 11.8684 0.0322266 8C0.0322266 4.13158 6.21479 1 13.848 1C21.4812 1 27.6638 4.13158 27.6638 8C27.6638 11.8684 21.4812 15 13.848 15ZM7.87269 5.84704C8.4944 5.84704 8.92038 5.96217 9.12762 6.20395C9.33486 6.43421 9.38091 6.84868 9.27729 7.3898C9.16216 8 8.94341 8.39145 8.60953 8.64474C8.28716 8.89803 7.79209 9.02467 7.12433 9.02467H6.12269L6.73288 5.84704H7.87269ZM3.84308 12.2368H5.50098L5.89242 10.222H7.30854C7.93025 10.222 8.43683 10.153 8.83979 10.0263C9.24275 9.88816 9.61117 9.66941 9.94506 9.35855C10.2214 9.10526 10.4401 8.82895 10.6128 8.51809C10.7855 8.21875 10.9122 7.87335 10.9697 7.50493C11.1539 6.60691 11.0273 5.90461 10.5898 5.40954C10.1408 4.90296 9.44999 4.66118 8.4944 4.66118H5.31677L3.84308 12.2368ZM12.1901 2.64638L10.7164 10.222H12.3513L13.2033 5.88158H14.5158C14.9303 5.88158 15.2066 5.95066 15.3332 6.08882C15.4599 6.22697 15.4829 6.48026 15.4138 6.84868L14.7576 10.222H16.427L17.1062 6.6875C17.2559 5.97368 17.1408 5.45559 16.7954 5.12171C16.45 4.81086 15.8168 4.66118 14.8957 4.66118H13.4335L13.848 2.64638H12.1901ZM20.7559 5.84704C21.3891 5.84704 21.8036 5.96217 22.0108 6.20395C22.2181 6.43421 22.2641 6.84868 22.1605 7.3898C22.0454 8 21.8266 8.39145 21.5043 8.64474C21.1704 8.89803 20.6753 9.02467 20.0076 9.02467H19.0289L19.6046 5.84704H20.7559ZM16.7263 12.2368H18.3842L18.7756 10.222H20.1803C20.8135 10.222 21.3316 10.153 21.7345 10.0263C22.1375 9.88816 22.4829 9.66941 22.8283 9.35855C23.1046 9.10526 23.3349 8.82895 23.496 8.51809C23.6687 8.21875 23.7954 7.87335 23.8645 7.50493C24.0372 6.60691 23.9105 5.90461 23.473 5.40954C23.0585 4.90296 22.3332 4.66118 21.3776 4.66118H18.2115L16.7263 12.2368Z" fill="black"/>
</g>
<defs>
<clipPath id="clip0_82_38">
<rect width="27.6316" height="16" fill="white" transform="translate(0.0322266)"/>
</clipPath>
</defs>
</svg>
