<svg width="17" height="16" viewBox="0 0 17 16" fill="none" xmlns="http://www.w3.org/2000/svg">
<g clip-path="url(#clip0_47_217)">
<path d="M13.101 5.53674C12.9322 5.48049 12.7635 5.42737 12.5947 5.37737C12.6229 5.26174 12.6479 5.14612 12.6729 5.03049C13.0572 3.16799 12.8041 1.67112 11.951 1.17737C11.1291 0.705493 9.78848 1.19612 8.43223 2.37737C8.29785 2.49299 8.1666 2.61487 8.0416 2.73674C7.95723 2.65549 7.86973 2.57424 7.78223 2.49612C6.36035 1.23362 4.93535 0.702368 4.08223 1.19924C3.26348 1.67424 3.01973 3.08362 3.36348 4.84612C3.39785 5.02112 3.43535 5.19299 3.4791 5.36799C3.2791 5.42424 3.08223 5.48674 2.89785 5.55237C1.2291 6.13049 0.0322266 7.04299 0.0322266 7.98674C0.0322266 8.96174 1.30723 9.93987 3.0416 10.5336C3.18223 10.5805 3.32285 10.6274 3.4666 10.668C3.41973 10.8555 3.3791 11.0399 3.3416 11.2305C3.01348 12.9649 3.26973 14.3399 4.08848 14.8117C4.93223 15.2992 6.35098 14.7992 7.73223 13.5899C7.8416 13.493 7.95098 13.393 8.06035 13.2867C8.19785 13.4211 8.3416 13.5492 8.48535 13.6742C9.82285 14.8242 11.1447 15.2899 11.9604 14.818C12.8041 14.3305 13.0791 12.8524 12.7229 11.0524C12.6947 10.9149 12.6635 10.7742 12.6291 10.6305C12.7291 10.6024 12.826 10.5711 12.9229 10.5399C14.726 9.94299 16.0322 8.97737 16.0322 7.98674C16.0322 7.03987 14.801 6.12112 13.101 5.53674ZM8.87285 2.88362C10.0354 1.87112 11.1197 1.47424 11.6135 1.75862C12.1416 2.06174 12.3447 3.28674 12.0135 4.89612C11.9916 5.00237 11.9697 5.10549 11.9416 5.20862C11.2479 5.05237 10.5447 4.93987 9.83848 4.87737C9.43223 4.29612 8.98848 3.73987 8.50723 3.21799C8.6291 3.10237 8.74785 2.99299 8.87285 2.88362ZM5.25723 9.60862C5.4166 9.88049 5.5791 10.1524 5.75098 10.418C5.26348 10.3649 4.7791 10.2867 4.30098 10.1836C4.43848 9.73362 4.61035 9.26799 4.81035 8.79299C4.9541 9.06799 5.10098 9.33987 5.25723 9.60862ZM4.31035 5.84924C4.76035 5.74924 5.23848 5.66799 5.73535 5.60549C5.56973 5.86487 5.40723 6.13049 5.2541 6.39924C5.10098 6.66487 4.95098 6.93674 4.81035 7.21174C4.61348 6.74612 4.44785 6.28987 4.31035 5.84924ZM5.1666 8.00237C5.37285 7.57112 5.59785 7.14924 5.83535 6.73362C6.07285 6.31799 6.3291 5.91487 6.59785 5.51799C7.0666 5.48362 7.54473 5.46487 8.03223 5.46487C8.51973 5.46487 9.00098 5.48362 9.4666 5.51799C9.73223 5.91174 9.98535 6.31487 10.226 6.72737C10.4666 7.13987 10.6916 7.56174 10.9041 7.98987C10.6947 8.42112 10.4697 8.84612 10.2291 9.26487C9.9916 9.68049 9.73848 10.0836 9.47285 10.4836C9.00723 10.518 8.52285 10.5336 8.03223 10.5336C7.5416 10.5336 7.0666 10.518 6.60723 10.4899C6.33535 10.093 6.0791 9.68674 5.83848 9.27112C5.59785 8.85549 5.37598 8.43362 5.1666 8.00237ZM10.8104 9.60237C10.9697 9.32737 11.1197 9.04924 11.2666 8.76799C11.4666 9.22112 11.6416 9.68049 11.7947 10.1524C11.3104 10.2617 10.8197 10.3461 10.326 10.4024C10.4947 10.1399 10.6541 9.87112 10.8104 9.60237ZM11.2604 7.21174C11.1135 6.93674 10.9635 6.66174 10.8072 6.39299C10.6541 6.12737 10.4947 5.86487 10.3291 5.60549C10.8322 5.66799 11.3135 5.75237 11.7635 5.85549C11.6197 6.31799 11.451 6.76799 11.2604 7.21174ZM8.03848 3.69612C8.3666 4.05237 8.67598 4.42737 8.96348 4.81487C8.34473 4.78674 7.72285 4.78674 7.1041 4.81487C7.41035 4.41174 7.72598 4.03674 8.03848 3.69612ZM4.41348 1.78049C4.93848 1.47424 6.1041 1.91174 7.33223 2.99924C7.41035 3.06799 7.48848 3.14299 7.56973 3.21799C7.08535 3.73987 6.63848 4.29612 6.2291 4.87737C5.52285 4.93987 4.82285 5.04924 4.1291 5.20237C4.08848 5.04299 4.0541 4.88049 4.01973 4.71799C3.72598 3.20549 3.91973 2.06487 4.41348 1.78049ZM3.64785 10.018C3.5166 9.98049 3.38848 9.93987 3.26035 9.89612C2.59473 9.68674 1.83848 9.35549 1.2916 8.92112C0.975977 8.70237 0.763477 8.36487 0.704102 7.98674C0.704102 7.41487 1.6916 6.68362 3.1166 6.18674C3.29473 6.12424 3.47598 6.06799 3.65723 6.01487C3.86973 6.69299 4.12598 7.35862 4.42285 8.00237C4.12285 8.65549 3.86348 9.33049 3.64785 10.018ZM7.2916 13.0805C6.77598 13.5524 6.1791 13.9274 5.5291 14.1836C5.18223 14.3492 4.78223 14.3649 4.42598 14.2242C3.9291 13.9367 3.72285 12.8336 4.0041 11.3492C4.03848 11.1742 4.07598 10.9992 4.11973 10.8274C4.81973 10.9774 5.52598 11.0805 6.2416 11.1336C6.6541 11.718 7.10723 12.2774 7.5916 12.8024C7.4916 12.8992 7.3916 12.993 7.2916 13.0805ZM8.05723 12.3211C7.73848 11.9774 7.41973 11.5961 7.11035 11.1867C7.41035 11.1992 7.71973 11.2055 8.03223 11.2055C8.3541 11.2055 8.66973 11.1992 8.98223 11.1836C8.69473 11.5805 8.38535 11.9586 8.05723 12.3211ZM12.1416 13.2586C12.1135 13.6399 11.926 13.9961 11.626 14.2367C11.1291 14.5242 10.0697 14.1492 8.92598 13.168C8.79473 13.0555 8.66348 12.9336 8.5291 12.8086C9.00723 12.2805 9.44785 11.7211 9.84785 11.1336C10.5635 11.0742 11.276 10.9649 11.9791 10.8055C12.0104 10.9336 12.0385 11.0617 12.0635 11.1867C12.2166 11.8617 12.2416 12.5649 12.1416 13.2586ZM12.7104 9.89924C12.6229 9.92737 12.5354 9.95549 12.4447 9.98049C12.226 9.29924 11.9572 8.63362 11.6479 7.98674C11.9479 7.34924 12.201 6.69299 12.4135 6.02112C12.576 6.06799 12.7322 6.11799 12.8822 6.16799C14.3385 6.66799 15.3604 7.41174 15.3604 7.98049C15.3604 8.59299 14.2697 9.38362 12.7104 9.89924ZM8.03223 9.43049C8.82285 9.43049 9.46348 8.78987 9.46348 7.99924C9.46348 7.20862 8.82285 6.56799 8.03223 6.56799C7.2416 6.56799 6.60098 7.20862 6.60098 7.99924C6.60098 8.78987 7.2416 9.43049 8.03223 9.43049Z" fill="black"/>
</g>
<defs>
<clipPath id="clip0_47_217">
<rect width="16" height="16" fill="white" transform="translate(0.0322266)"/>
</clipPath>
</defs>
</svg>
