<svg width="23" height="16" viewBox="0 0 23 16" fill="none" xmlns="http://www.w3.org/2000/svg">
<g clip-path="url(#clip0_47_197)">
<path d="M10.7612 12.0962C10.7412 12.1322 10.7512 12.1162 10.7612 12.0962V12.0962ZM19.0649 9.19644C18.3945 9.19623 17.733 9.35018 17.1317 9.64641C16.935 9.24977 16.7317 8.90313 16.6984 8.64315C16.6584 8.33985 16.6151 8.15986 16.6617 7.79989C16.7084 7.43992 16.9184 6.92996 16.915 6.8933C16.9117 6.85663 16.8684 6.67331 16.4384 6.66998C16.0084 6.66665 15.6385 6.75331 15.5955 6.86663C15.5195 7.07373 15.4605 7.28663 15.4188 7.50325C15.3422 7.89321 14.5592 9.28644 14.1159 10.013C13.9693 9.72973 13.8459 9.47975 13.8193 9.27977C13.7793 8.97646 13.736 8.79647 13.7826 8.4365C13.8293 8.07653 14.0393 7.56658 14.0359 7.52991C14.0326 7.49325 13.9893 7.30993 13.5596 7.3066C13.13 7.30326 12.7597 7.38992 12.7164 7.50325C12.673 7.61657 12.6264 7.88322 12.5397 8.13986C12.4531 8.39651 11.4101 10.7163 11.1372 11.3196C10.9972 11.6262 10.8772 11.8729 10.7905 12.0395C10.7772 12.0662 10.7672 12.0829 10.7605 12.0962C10.7705 12.0795 10.7772 12.0629 10.7772 12.0695C10.7039 12.2129 10.6605 12.2929 10.6605 12.2929V12.2962C10.6039 12.4028 10.5406 12.4995 10.5106 12.4995C10.4906 12.4995 10.4472 12.2195 10.5206 11.8362C10.6772 11.0296 11.0472 9.77639 11.0438 9.73306C11.0405 9.70973 11.1138 9.49308 10.8005 9.37643C10.4972 9.26644 10.3872 9.44975 10.3606 9.44975C10.3339 9.44975 10.3139 9.51642 10.3139 9.51642C10.3139 9.51642 10.6505 8.1032 9.66762 8.1032C9.05434 8.1032 8.20108 8.77648 7.78178 9.38643C7.51846 9.52975 6.94851 9.83972 6.34856 10.1697C6.11858 10.2964 5.88193 10.4263 5.65862 10.5497C5.64195 10.533 5.62862 10.5163 5.61195 10.4997C4.41905 9.22644 2.21656 8.32651 2.30989 6.61665C2.34322 5.99337 2.55987 4.35684 6.54521 2.37033C9.81161 0.743798 12.4231 1.19043 12.8727 2.18368C13.5193 3.60023 11.4765 6.23668 8.08442 6.61665C6.79152 6.75997 6.11191 6.26002 5.94193 6.07336C5.76527 5.87671 5.73861 5.86671 5.67195 5.90338C5.56196 5.96337 5.63195 6.13669 5.67195 6.24002C5.77194 6.50333 6.18857 6.96996 6.89818 7.20327C7.52146 7.40659 9.03734 7.51991 10.8702 6.80997C12.9294 6.0167 14.5322 3.80688 14.0623 1.95703C13.5836 0.0771856 10.4666 -0.539431 7.51913 0.507151C5.76294 1.13043 3.86376 2.11035 2.49754 3.38692C0.874673 4.90679 0.615027 6.23002 0.721685 6.78331C1.10132 8.74648 3.8071 10.0264 4.89001 10.973C4.83668 11.003 4.78669 11.0296 4.74002 11.0563C4.19707 11.3263 2.13424 12.4062 1.61795 13.5461C1.03466 14.8393 1.7146 15.7659 2.1609 15.8926C3.55379 16.2792 4.98 15.5826 5.74628 14.4393C6.51255 13.2961 6.41955 11.8029 6.06625 11.123C6.06292 11.113 6.05625 11.1063 6.05292 11.0963C6.19291 11.013 6.33623 10.9296 6.47955 10.8463C6.75586 10.683 7.02584 10.533 7.26248 10.403C7.12916 10.763 7.0325 11.1963 6.98251 11.8229C6.92251 12.5562 7.22582 13.5061 7.61912 13.8794C7.79244 14.0427 8.00209 14.046 8.13208 14.046C8.59204 14.046 8.79869 13.6661 9.02834 13.2128C9.31165 12.6595 9.56163 12.0162 9.56163 12.0162C9.56163 12.0162 9.24832 13.7561 10.1049 13.7561C10.4179 13.7561 10.7312 13.3528 10.8715 13.1461V13.1495C10.8715 13.1495 10.8782 13.1361 10.8949 13.1095C10.9282 13.0595 10.9449 13.0295 10.9449 13.0295V13.0195C11.0715 12.8028 11.3482 12.3062 11.7645 11.4863C12.3044 10.4263 12.8207 9.10312 12.8207 9.10312C12.8706 9.39399 12.9396 9.68126 13.0273 9.96305C13.1207 10.2797 13.3173 10.6263 13.474 10.963C13.3473 11.1363 13.2707 11.2363 13.2707 11.2363C13.2709 11.2388 13.2721 11.2412 13.274 11.2429C13.174 11.3763 13.0607 11.5196 12.944 11.6596C12.5177 12.1662 12.0108 12.7462 11.9441 12.9128C11.8641 13.1095 11.8841 13.2561 12.0374 13.3694C12.1508 13.4561 12.3507 13.4694 12.5604 13.4528C12.9437 13.4261 13.2137 13.3328 13.3437 13.2728C13.5833 13.1868 13.8098 13.0679 14.0166 12.9195C14.4332 12.6128 14.6865 12.1729 14.6632 11.5929C14.6499 11.2729 14.5466 10.953 14.4199 10.653C14.4566 10.5997 14.4966 10.543 14.5332 10.4863C15.1928 9.52308 15.7028 8.46583 15.7028 8.46583C15.7527 8.75671 15.8217 9.04398 15.9094 9.32576C15.9894 9.59574 16.1458 9.89239 16.2891 10.1824C15.6695 10.6857 15.2862 11.2689 15.1528 11.6522C14.9062 12.3622 15.0995 12.6822 15.4628 12.7555C15.6261 12.7888 15.8595 12.7122 16.0328 12.6388C16.2902 12.5531 16.5329 12.4283 16.7524 12.2689C17.169 11.9622 17.572 11.5323 17.5453 10.949C17.5353 10.6857 17.462 10.4223 17.3653 10.169C17.8886 9.94905 18.5682 9.82906 19.4348 9.92905C21.2907 10.1457 21.654 11.3056 21.584 11.7889C21.514 12.2722 21.124 12.5422 20.994 12.6222C20.864 12.7022 20.824 12.7322 20.834 12.7921C20.8507 12.8788 20.9107 12.8755 21.0207 12.8555C21.174 12.8288 21.9936 12.4622 22.0303 11.5656C22.0836 10.4323 20.994 9.18578 19.0639 9.19578L19.0649 9.19644ZM4.76002 14.0194C4.14707 14.6893 3.28714 14.9426 2.91751 14.7293C2.52087 14.4987 2.67753 13.5128 3.4338 12.7988C3.89376 12.3655 4.48671 11.9655 4.88001 11.7189C4.97001 11.6656 5.09999 11.5856 5.25998 11.4889C5.28665 11.4723 5.29998 11.4656 5.29998 11.4656C5.32998 11.4456 5.36331 11.4289 5.39664 11.4089C5.67295 12.4222 5.40664 13.3154 4.76002 14.0187V14.0194ZM9.23832 10.973C9.02501 11.4963 8.57538 12.8295 8.30207 12.7595C8.06875 12.6995 7.92543 11.6829 8.2554 10.683C8.42206 10.1797 8.77536 9.57974 8.98534 9.34643C9.32165 8.96979 9.69162 8.8498 9.77828 8.99979C9.89494 9.19644 9.37165 10.6463 9.23832 10.973ZM12.938 12.7395C12.848 12.7861 12.7647 12.8161 12.7247 12.7928C12.6947 12.7762 12.7614 12.7128 12.7614 12.7128C12.7614 12.7128 13.2247 12.2162 13.408 11.9895C13.5146 11.8562 13.638 11.6996 13.771 11.5263C13.771 11.5429 13.7743 11.5596 13.7743 11.5796C13.77 12.1762 13.197 12.5795 12.937 12.7395H12.938ZM15.7905 12.0895C15.7238 12.0429 15.7338 11.8862 15.9571 11.3996C16.0438 11.2096 16.2434 10.8896 16.5904 10.583C16.6297 10.6991 16.651 10.8205 16.6537 10.943C16.6504 11.6929 16.1138 11.9729 15.7908 12.0895H15.7905Z" fill="black"/>
</g>
<defs>
<clipPath id="clip0_47_197">
<rect width="21.3313" height="16" fill="white" transform="translate(0.700806)"/>
</clipPath>
</defs>
</svg>
