<svg width="17" height="16" viewBox="0 0 17 16" fill="none" xmlns="http://www.w3.org/2000/svg">
<g clip-path="url(#clip0_74_38)">
<path d="M6.03011 3.66669C6.73735 3.66669 7.41563 3.94764 7.91573 4.44774C8.41583 4.94783 8.69678 5.62611 8.69678 6.33335C8.69678 7.0406 8.41583 7.71888 7.91573 8.21897C7.41563 8.71907 6.73735 9.00002 6.03011 9.00002C5.32287 9.00002 4.64459 8.71907 4.14449 8.21897C3.6444 7.71888 3.36344 7.0406 3.36344 6.33335C3.36344 5.62611 3.6444 4.94783 4.14449 4.44774C4.64459 3.94764 5.32287 3.66669 6.03011 3.66669ZM6.03011 10.3334C7.81011 10.3334 11.3634 11.2267 11.3634 13V14.3334H0.696777V13C0.696777 11.2267 4.25011 10.3334 6.03011 10.3334ZM11.2034 3.90669C12.5501 5.37335 12.5501 7.40669 11.2034 8.75335L10.0834 7.62669C10.6434 6.84002 10.6434 5.82002 10.0834 5.03335L11.2034 3.90669ZM13.4101 1.66669C16.0301 4.36669 16.0101 8.40669 13.4101 11L12.3234 9.91335C14.1701 7.79335 14.1701 4.76669 12.3234 2.75335L13.4101 1.66669Z" fill="black"/>
</g>
<defs>
<clipPath id="clip0_74_38">
<rect width="16" height="16" fill="white" transform="translate(0.0322266)"/>
</clipPath>
</defs>
</svg>
