<svg width="17" height="16" viewBox="0 0 17 16" fill="none" xmlns="http://www.w3.org/2000/svg">
<g clip-path="url(#clip0_47_107)">
<path d="M15.2822 0H0.782227C0.368013 0 0.0322266 0.335786 0.0322266 0.75V15.25C0.0322266 15.6642 0.368013 16 0.782227 16H15.2822C15.6964 16 16.0322 15.6642 16.0322 15.25V0.75C16.0322 0.335786 15.6964 0 15.2822 0Z" fill="black"/>
<path fill-rule="evenodd" clip-rule="evenodd" d="M9.42019 12.5725V14.5146C9.71859 14.6763 10.0715 14.7977 10.4789 14.8786C10.8863 14.9596 11.3157 15 11.7672 15C12.2071 15 12.625 14.9556 13.0209 14.8665C13.4169 14.7775 13.764 14.6309 14.0625 14.4265C14.3608 14.2221 14.5971 13.9552 14.7712 13.6254C14.9452 13.2957 15.0322 12.888 15.0322 12.4026C15.0322 12.0506 14.9825 11.7421 14.8831 11.4771C14.7835 11.2121 14.6401 10.9764 14.4526 10.7701C14.2652 10.5637 14.0404 10.3786 13.7784 10.2148C13.5163 10.0509 13.2209 9.89616 12.8918 9.75051C12.6508 9.64532 12.4347 9.54316 12.2434 9.44404C12.0521 9.34491 11.8896 9.24377 11.7557 9.1406C11.6218 9.03742 11.5185 8.92818 11.4458 8.81287C11.3731 8.69758 11.3368 8.56709 11.3368 8.42144C11.3368 8.28792 11.3693 8.16756 11.4343 8.06035C11.4994 7.95314 11.5912 7.86109 11.7098 7.78422C11.8284 7.70736 11.9737 7.64768 12.1459 7.6052C12.318 7.56271 12.5093 7.54146 12.7197 7.54146C12.8728 7.54146 13.0343 7.55361 13.2046 7.57788C13.3748 7.60215 13.546 7.63958 13.7182 7.69016C13.8903 7.74073 14.0576 7.80445 14.2203 7.88132C14.3829 7.95819 14.533 8.0472 14.6707 8.14834V6.33379C14.3914 6.2205 14.0864 6.13655 13.7555 6.08193C13.4246 6.0273 13.0449 6 12.6164 6C12.1803 6 11.7672 6.04956 11.3769 6.14868C10.9867 6.2478 10.6434 6.40256 10.3469 6.61294C10.0504 6.82333 9.81613 7.09137 9.64399 7.41706C9.47184 7.74275 9.38576 8.13216 9.38576 8.5853C9.38576 9.16386 9.54356 9.65745 9.85917 10.0661C10.1748 10.4747 10.6539 10.8206 11.2966 11.1038C11.5491 11.2131 11.7844 11.3203 12.0024 11.4255C12.2205 11.5307 12.4089 11.6399 12.5676 11.7532C12.7264 11.8665 12.8516 11.9899 12.9434 12.1234C13.0353 12.2569 13.0812 12.4086 13.0812 12.5786C13.0812 12.704 13.0525 12.8203 12.9952 12.9275C12.9378 13.0347 12.8507 13.1277 12.734 13.2066C12.6174 13.2856 12.472 13.3473 12.2979 13.3918C12.1239 13.4362 11.9202 13.4585 11.6868 13.4585C11.2889 13.4585 10.8949 13.3847 10.5047 13.237C10.1145 13.0894 9.75302 12.8678 9.42019 12.5725ZM6.32651 7.7383H8.7292V6.13846H2.03223V7.7383H4.42316V14.8615H6.32651V7.7383Z" fill="white"/>
</g>
<defs>
<clipPath id="clip0_47_107">
<rect x="0.0322266" width="16" height="16" rx="2" fill="white"/>
</clipPath>
</defs>
</svg>
